<svg width="19" height="18" viewBox="0 0 19 18" version="1.1" xmlns="http://www.w3.org/2000/svg" xmlns:xlink="http://www.w3.org/1999/xlink">
<title>facebook</title>
<desc>Created using Figma</desc>
<g id="Canvas" transform="translate(-9938 -821)">
<g id="facebook">
<g id="Vector">
<use xlink:href="#path0_fill" transform="translate(9938.95 821)" fill="#FAFAFA"/>
</g>
</g>
</g>
<defs>
<path id="path0_fill" d="M 16 0L 2 0C 0.9 0 0 0.9 0 2L 0 16C 0 17.101 0.9 18 2 18L 9 18L 9 11L 7 11L 7 8.525L 9 8.525L 9 6.475C 9 4.311 10.212 2.791 12.766 2.791L 14.569 2.793L 14.569 5.398L 13.372 5.398C 12.378 5.398 12 6.144 12 6.836L 12 8.526L 14.568 8.526L 14 11L 12 11L 12 18L 16 18C 17.1 18 18 17.101 18 16L 18 2C 18 0.9 17.1 0 16 0Z"/>
</defs>
</svg>
