<svg width="20" height="16" viewBox="0 0 20 16" version="1.1" xmlns="http://www.w3.org/2000/svg" xmlns:xlink="http://www.w3.org/1999/xlink">
<title>github</title>
<desc>Created using Figma</desc>
<g id="Canvas" transform="translate(-9840 -825)">
<g id="github">
<g id="Vector">
<use xlink:href="#path0_fill" transform="translate(9840.95 825)" fill="#FAFAFA"/>
</g>
</g>
</g>
<defs>
<path id="path0_fill" d="M 12.38 9.109C 11.662 9.109 11.08 9.916 11.08 10.908C 11.08 11.902 11.662 12.709 12.38 12.709C 13.098 12.709 13.68 11.902 13.68 10.908C 13.679 9.916 13.098 9.109 12.38 9.109ZM 16.906 4.426C 17.055 4.061 17.061 1.987 16.271 4.76837e-08C 16.271 4.76837e-08 14.46 0.199 11.72 2.08C 11.145 1.92 10.172 1.842 9.201 1.842C 8.228 1.842 7.256 1.92 6.681 2.08C 3.94 0.199 2.129 4.76837e-08 2.129 4.76837e-08C 1.34 1.987 1.348 4.061 1.495 4.426C 0.567 5.434 1.19209e-08 6.645 1.19209e-08 8.297C 1.19209e-08 15.483 5.963 15.598 7.467 15.598C 7.809 15.598 8.485 15.6 9.201 15.6C 9.916 15.6 10.593 15.598 10.933 15.598C 12.439 15.598 18.4 15.483 18.4 8.297C 18.4 6.645 17.834 5.434 16.906 4.426ZM 9.228 14.715L 9.172 14.715C 5.401 14.715 2.463 14.266 2.463 10.6C 2.463 9.721 2.773 8.907 3.51 8.231C 4.737 7.104 6.815 7.7 9.172 7.7C 9.182 7.7 9.192 7.7 9.201 7.7C 9.211 7.7 9.219 7.7 9.228 7.7C 11.585 7.7 13.664 7.104 14.892 8.231C 15.627 8.907 15.937 9.721 15.937 10.6C 15.937 14.266 13 14.715 9.228 14.715ZM 6.021 9.109C 5.303 9.109 4.721 9.916 4.721 10.908C 4.721 11.902 5.303 12.709 6.021 12.709C 6.74 12.709 7.322 11.902 7.322 10.908C 7.322 9.916 6.74 9.109 6.021 9.109Z"/>
</defs>
</svg>
