<svg width="19" height="18" viewBox="0 0 19 18" version="1.1" xmlns="http://www.w3.org/2000/svg" xmlns:xlink="http://www.w3.org/1999/xlink">
<title>linkedin</title>
<desc>Created using Figma</desc>
<g id="Canvas" transform="translate(-9873 -822)">
<g id="linkedin">
<g id="Vector">
<use xlink:href="#path0_fill" transform="translate(9873.95 822)" fill="#FAFAFA"/>
</g>
</g>
</g>
<defs>
<path id="path0_fill" d="M 4 2C 4 3.1 3.3 4 2 4C 0.8 4 0 3.1 0 2.1C 0 1 0.8 0 2 0C 3.2 0 4 0.9 4 2ZM 0 18L 4 18L 4 5L 0 5L 0 18ZM 13.6 5.2C 11.5 5.2 10.3 6.4 9.8 7.2L 9.7 7.2L 9.5 5.5L 5.9 5.5C 5.9 6.6 6 7.9 6 9.4L 6 18L 10 18L 10 10.9C 10 10.5 10 10.2 10.1 9.9C 10.4 9.2 10.9 8.3 12 8.3C 13.4 8.3 14 9.5 14 11.1L 14 18L 18 18L 18 10.6C 18 6.9 16.1 5.2 13.6 5.2Z"/>
</defs>
</svg>
