<svg width="19" height="16" viewBox="0 0 19 16" version="1.1" xmlns="http://www.w3.org/2000/svg" xmlns:xlink="http://www.w3.org/1999/xlink">
<title>vimeo</title>
<desc>Created using Figma</desc>
<g id="Canvas" transform="translate(-9971 -825)">
<g id="vimeo">
<g id="Vector">
<use xlink:href="#path0_fill" transform="translate(9971.95 825)" fill="#FAFAFA"/>
</g>
</g>
</g>
<defs>
<path id="path0_fill" d="M 17.91 3.84005C 16.904 9.61305 11.285 14.5001 9.595 15.6171C 7.905 16.7321 6.362 15.1701 5.803 13.9861C 5.162 12.6391 3.244 5.33005 2.741 4.72505C 2.238 4.11905 0.731 5.33005 0.731 5.33005L 0 4.35405C 0 4.35405 3.061 0.629055 5.391 0.163055C 7.861 -0.329945 7.857 4.02705 8.451 6.44505C 9.025 8.78705 9.412 10.1251 9.914 10.1251C 10.416 10.1251 11.376 8.82006 12.426 6.82005C 13.479 4.81605 12.381 3.04806 10.325 4.30606C 11.148 -0.720945 18.916 -1.92994 17.91 3.84005Z"/>
</defs>
</svg>
