<svg width="18" height="18" viewBox="0 0 18 18" version="1.1" xmlns="http://www.w3.org/2000/svg" xmlns:xlink="http://www.w3.org/1999/xlink">
<title>xing</title>
<desc>Created using Figma</desc>
<g id="Canvas" transform="translate(-9907 -824)">
<g id="xing">
<g id="Vector">
<use xlink:href="#path0_fill" transform="translate(9907.95 824)" fill="#FAFAFA"/>
</g>
</g>
</g>
<defs>
<path id="path0_fill" d="M 15.8366 0L 13.0086 0C 12.7856 0 12.4556 0.105 12.3186 0.381C 12.1816 0.657 12.0086 1 12.0086 1L 7.00859 11L 10.0086 17C 10.0086 17 10.1806 17.344 10.3186 17.619C 10.4566 17.894 10.7856 18 11.0086 18L 13.8366 18C 14.3366 18 14.3166 17.619 14.1916 17.369C 14.0666 17.119 14.0086 17 14.0086 17L 11.0086 11L 16.0086 1C 16.0086 1 16.0676 0.881 16.1926 0.631C 16.3176 0.381 16.3366 0 15.8366 0ZM 4.94859 4.381C 4.81159 4.105 4.48159 4 4.25859 4L 1.43059 4C 0.930588 4 0.950588 4.381 1.07559 4.631C 1.20059 4.881 1.25859 5 1.25859 5L 2.50859 7.5L 0.258588 12C 0.258588 12 0.199588 12.119 0.0745877 12.369C -0.0504123 12.619 -0.0694123 13 0.430588 13L 3.25859 13C 3.48159 13 3.81159 12.894 3.94959 12.619C 4.08659 12.344 4.25859 12 4.25859 12L 6.50859 7.5L 5.25859 5C 5.25859 5 5.08659 4.656 4.94859 4.381Z"/>
</defs>
</svg>
