<svg width="305" height="77" viewBox="0 0 305 77" version="1.1" xmlns="http://www.w3.org/2000/svg" xmlns:xlink="http://www.w3.org/1999/xlink">
<title>Group</title>
<desc>Created using Figma</desc>
<g id="Canvas" transform="translate(-9743 -195)">
<g id="Group">
<g id="Web Design Entwicklung">
<use xlink:href="#path0_fill" transform="translate(9768.01 251.899)" fill="#242424"/>
<use xlink:href="#path1_fill" transform="translate(9768.01 251.899)" fill="#242424"/>
<use xlink:href="#path2_fill" transform="translate(9768.01 251.899)" fill="#242424"/>
<use xlink:href="#path3_fill" transform="translate(9768.01 251.899)" fill="#242424"/>
<use xlink:href="#path4_fill" transform="translate(9768.01 251.899)" fill="#242424"/>
<use xlink:href="#path5_fill" transform="translate(9768.01 251.899)" fill="#242424"/>
<use xlink:href="#path6_fill" transform="translate(9768.01 251.899)" fill="#242424"/>
<use xlink:href="#path7_fill" transform="translate(9768.01 251.899)" fill="#242424"/>
<use xlink:href="#path8_fill" transform="translate(9768.01 251.899)" fill="#242424"/>
<use xlink:href="#path9_fill" transform="translate(9768.01 251.899)" fill="#242424"/>
<use xlink:href="#path10_fill" transform="translate(9768.01 251.899)" fill="#242424"/>
<use xlink:href="#path11_fill" transform="translate(9768.01 251.899)" fill="#242424"/>
<use xlink:href="#path12_fill" transform="translate(9768.01 251.899)" fill="#242424"/>
<use xlink:href="#path13_fill" transform="translate(9768.01 251.899)" fill="#242424"/>
<use xlink:href="#path14_fill" transform="translate(9768.01 251.899)" fill="#242424"/>
<use xlink:href="#path15_fill" transform="translate(9768.01 251.899)" fill="#242424"/>
<use xlink:href="#path16_fill" transform="translate(9768.01 251.899)" fill="#242424"/>
<use xlink:href="#path17_fill" transform="translate(9768.01 251.899)" fill="#242424"/>
<use xlink:href="#path18_fill" transform="translate(9768.01 251.899)" fill="#242424"/>
<use xlink:href="#path19_fill" transform="translate(9768.01 251.899)" fill="#242424"/>
</g>
<g id="//">
<use xlink:href="#path20_fill" transform="translate(9914.54 198.008)" fill="url(#paint20_linear)"/>
<use xlink:href="#path21_fill" transform="translate(9914.54 198.008)" fill="url(#paint21_linear)"/>
</g>
<g id="rostock">
<use xlink:href="#path22_fill" transform="translate(9743.5 195.569)" fill="#242424"/>
<use xlink:href="#path23_fill" transform="translate(9743.5 195.569)" fill="#242424"/>
<use xlink:href="#path24_fill" transform="translate(9743.5 195.569)" fill="#242424"/>
<use xlink:href="#path25_fill" transform="translate(9743.5 195.569)" fill="#242424"/>
<use xlink:href="#path26_fill" transform="translate(9743.5 195.569)" fill="#242424"/>
<use xlink:href="#path27_fill" transform="translate(9743.5 195.569)" fill="#242424"/>
<use xlink:href="#path28_fill" transform="translate(9743.5 195.569)" fill="#242424"/>
</g>
<g id="ahoi">
<use xlink:href="#path29_fill" transform="translate(9951.03 195.571)" fill="#242424"/>
<use xlink:href="#path30_fill" transform="translate(9951.03 195.571)" fill="#242424"/>
<use xlink:href="#path31_fill" transform="translate(9951.03 195.571)" fill="#242424"/>
<use xlink:href="#path32_fill" transform="translate(9951.03 195.571)" fill="#242424"/>
</g>
</g>
</g>
<defs>
<linearGradient id="paint20_linear" x1="0" y1="0" x2="1" y2="0" gradientUnits="userSpaceOnUse" gradientTransform="matrix(2.81669e-15 64 -46 3.91887e-15 34.0469 -15.875)">
<stop offset="0" stop-color="#FFAF7B"/>
<stop offset="1" stop-color="#FE5F55"/>
</linearGradient>
<linearGradient id="paint21_linear" x1="0" y1="0" x2="1" y2="0" gradientUnits="userSpaceOnUse" gradientTransform="matrix(2.81669e-15 64 -46 3.91887e-15 34.0469 -15.875)">
<stop offset="0" stop-color="#FFAF7B"/>
<stop offset="1" stop-color="#FE5F55"/>
</linearGradient>
<path id="path0_fill" d="M 3.71094 1.88477L 2.26562 1.99219L 4.51172 11.2109L 4.94141 13.3789L 5 13.3789L 5.52734 11.2109L 8.65234 1.01562L 9.75586 1.01562L 12.8711 11.2109L 13.3887 13.4082L 13.4473 13.3984L 13.9062 11.2109L 16.123 1.99219L 14.6777 1.88477L 14.6777 1.01562L 18.3887 1.01562L 18.3887 1.88477L 17.3242 1.96289L 14.0137 15.2344L 12.9102 15.2344L 9.59961 4.32617L 9.22852 2.83203L 9.16992 2.83203L 8.81836 4.32617L 5.47852 15.2344L 4.375 15.2344L 1.06445 1.96289L 0 1.88477L 0 1.01562L 3.71094 1.01562L 3.71094 1.88477Z"/>
<path id="path1_fill" d="M 23.7988 15.4395C 22.4707 15.4395 21.3704 14.9544 20.498 13.9844C 19.6257 13.0078 19.1895 11.7676 19.1895 10.2637L 19.1895 9.72656C 19.1895 8.21615 19.6224 6.96289 20.4883 5.9668C 21.3607 4.9707 22.4121 4.47266 23.6426 4.47266C 24.9382 4.47266 25.957 4.88281 26.6992 5.70312C 27.4414 6.52344 27.8125 7.61719 27.8125 8.98438L 27.8125 9.98047L 20.3516 9.98047L 20.3516 10.2637C 20.3516 11.4486 20.6673 12.4447 21.2988 13.252C 21.9368 14.0527 22.7702 14.4531 23.7988 14.4531C 24.5215 14.4531 25.14 14.3522 25.6543 14.1504C 26.1686 13.9486 26.6081 13.6589 26.9727 13.2812L 27.4707 14.082C 27.0736 14.4987 26.5723 14.8307 25.9668 15.0781C 25.3613 15.319 24.6387 15.4395 23.7988 15.4395ZM 23.6426 5.46875C 22.7832 5.46875 22.0573 5.80078 21.4648 6.46484C 20.8789 7.1224 20.5371 7.94922 20.4395 8.94531L 20.459 8.99414L 26.6504 8.99414L 26.6504 8.70117C 26.6504 7.7832 26.3802 7.01497 25.8398 6.39648C 25.2995 5.77799 24.5671 5.46875 23.6426 5.46875Z"/>
<path id="path2_fill" d="M 38.9844 10.2441C 38.9844 11.8262 38.6263 13.0892 37.9102 14.0332C 37.194 14.9707 36.2077 15.4395 34.9512 15.4395C 34.1764 15.4395 33.5091 15.2865 32.9492 14.9805C 32.3893 14.668 31.9368 14.222 31.5918 13.6426L 31.4648 15.2344L 30.4688 15.2344L 30.4688 0.996094L 28.877 0.869141L 28.877 0L 31.6309 0L 31.6309 6.32812C 31.9824 5.73568 32.4316 5.27995 32.9785 4.96094C 33.5254 4.63542 34.1764 4.47266 34.9316 4.47266C 36.2012 4.47266 37.194 4.98047 37.9102 5.99609C 38.6263 7.00521 38.9844 8.35286 38.9844 10.0391L 38.9844 10.2441ZM 37.8027 10.0391C 37.8027 8.69141 37.5423 7.59766 37.0215 6.75781C 36.5007 5.91146 35.7324 5.48828 34.7168 5.48828C 33.8965 5.48828 33.2357 5.6901 32.7344 6.09375C 32.2396 6.4974 31.8717 7.01497 31.6309 7.64648L 31.6309 12.4219C 31.8913 13.0339 32.2786 13.5221 32.793 13.8867C 33.3138 14.2448 33.9616 14.4238 34.7363 14.4238C 35.752 14.4238 36.5169 14.0462 37.0312 13.291C 37.5456 12.5358 37.8027 11.5202 37.8027 10.2441L 37.8027 10.0391Z"/>
<path id="path3_fill" d="M 61.0352 1.01562C 62.7734 1.01562 64.209 1.59505 65.3418 2.75391C 66.4746 3.91276 67.041 5.40039 67.041 7.2168L 67.041 9.04297C 67.041 10.8659 66.4746 12.3535 65.3418 13.5059C 64.209 14.6582 62.7734 15.2344 61.0352 15.2344L 55.3125 15.2344L 55.3125 14.375L 56.9043 14.248L 56.9043 2.01172L 55.3125 1.88477L 55.3125 1.01562L 56.9043 1.01562L 61.0352 1.01562ZM 58.0664 2.01172L 58.0664 14.248L 61.0352 14.248C 62.4414 14.248 63.597 13.7565 64.502 12.7734C 65.4134 11.7904 65.8691 10.5469 65.8691 9.04297L 65.8691 7.1875C 65.8691 5.70312 65.4134 4.4694 64.502 3.48633C 63.5905 2.50326 62.4349 2.01172 61.0352 2.01172L 58.0664 2.01172Z"/>
<path id="path4_fill" d="M 73.916 15.4395C 72.5879 15.4395 71.4876 14.9544 70.6152 13.9844C 69.7428 13.0078 69.3066 11.7676 69.3066 10.2637L 69.3066 9.72656C 69.3066 8.21615 69.7396 6.96289 70.6055 5.9668C 71.4779 4.9707 72.5293 4.47266 73.7598 4.47266C 75.0553 4.47266 76.0742 4.88281 76.8164 5.70312C 77.5586 6.52344 77.9297 7.61719 77.9297 8.98438L 77.9297 9.98047L 70.4688 9.98047L 70.4688 10.2637C 70.4688 11.4486 70.7845 12.4447 71.416 13.252C 72.054 14.0527 72.8874 14.4531 73.916 14.4531C 74.6387 14.4531 75.2572 14.3522 75.7715 14.1504C 76.2858 13.9486 76.7253 13.6589 77.0898 13.2812L 77.5879 14.082C 77.1908 14.4987 76.6895 14.8307 76.084 15.0781C 75.4785 15.319 74.7559 15.4395 73.916 15.4395ZM 73.7598 5.46875C 72.9004 5.46875 72.1745 5.80078 71.582 6.46484C 70.9961 7.1224 70.6543 7.94922 70.5566 8.94531L 70.5762 8.99414L 76.7676 8.99414L 76.7676 8.70117C 76.7676 7.7832 76.4974 7.01497 75.957 6.39648C 75.4167 5.77799 74.6842 5.46875 73.7598 5.46875Z"/>
<path id="path5_fill" d="M 87.6855 7.92969L 86.7285 7.92969L 86.5918 6.43555C 86.2988 6.12956 85.9277 5.89193 85.4785 5.72266C 85.0358 5.55339 84.5247 5.46875 83.9453 5.46875C 83.0924 5.46875 82.4512 5.6543 82.0215 6.02539C 81.5983 6.38997 81.3867 6.81966 81.3867 7.31445C 81.3867 7.80273 81.569 8.20638 81.9336 8.52539C 82.3047 8.8444 83.0404 9.12435 84.1406 9.36523C 85.3971 9.64518 86.3379 10.0293 86.9629 10.5176C 87.5879 10.9993 87.9004 11.6569 87.9004 12.4902C 87.9004 13.3691 87.5423 14.082 86.8262 14.6289C 86.1165 15.1693 85.1758 15.4395 84.0039 15.4395C 83.2227 15.4395 82.5098 15.332 81.8652 15.1172C 81.2272 14.8958 80.6738 14.5866 80.2051 14.1895L 80.2051 12.0605L 81.1523 12.0605L 81.3184 13.5645C 81.6309 13.877 82.0247 14.1048 82.5 14.248C 82.9818 14.3848 83.4831 14.4531 84.0039 14.4531C 84.8503 14.4531 85.5176 14.2676 86.0059 13.8965C 86.4941 13.5254 86.7383 13.0762 86.7383 12.5488C 86.7383 12.054 86.5332 11.6211 86.123 11.25C 85.7194 10.8789 84.987 10.5762 83.9258 10.3418C 82.6693 10.0684 81.735 9.70703 81.123 9.25781C 80.5176 8.80208 80.2148 8.16732 80.2148 7.35352C 80.2148 6.54622 80.5566 5.86589 81.2402 5.3125C 81.9238 4.7526 82.8255 4.47266 83.9453 4.47266C 84.7201 4.47266 85.4264 4.5931 86.0645 4.83398C 86.709 5.06836 87.2331 5.38737 87.6367 5.79102L 87.6855 7.92969Z"/>
<path id="path6_fill" d="M 89.9609 14.375L 91.5527 14.248L 91.5527 5.66406L 89.9609 5.53711L 89.9609 4.66797L 92.7148 4.66797L 92.7148 14.248L 94.3066 14.375L 94.3066 15.2344L 89.9609 15.2344L 89.9609 14.375ZM 92.7148 1.64062L 91.5527 1.64062L 91.5527 0L 92.7148 0L 92.7148 1.64062Z"/>
<path id="path7_fill" d="M 96.3184 10.0391C 96.3184 8.35286 96.6764 7.00521 97.3926 5.99609C 98.1152 4.98047 99.1146 4.47266 100.391 4.47266C 101.139 4.47266 101.787 4.63867 102.334 4.9707C 102.887 5.29622 103.343 5.75846 103.701 6.35742L 103.838 4.66797L 104.824 4.66797L 104.824 15.0977C 104.824 16.4583 104.456 17.5326 103.721 18.3203C 102.985 19.1081 101.96 19.502 100.645 19.502C 100.137 19.502 99.5931 19.4401 99.0137 19.3164C 98.4408 19.1927 97.9395 19.0234 97.5098 18.8086L 97.8223 17.8223C 98.2454 18.0241 98.6882 18.1803 99.1504 18.291C 99.6191 18.4017 100.111 18.457 100.625 18.457C 101.628 18.457 102.383 18.1608 102.891 17.5684C 103.398 16.9759 103.652 16.1523 103.652 15.0977L 103.652 13.7598C 103.294 14.3001 102.842 14.7168 102.295 15.0098C 101.748 15.2962 101.107 15.4395 100.371 15.4395C 99.1016 15.4395 98.1087 14.9674 97.3926 14.0234C 96.6764 13.0794 96.3184 11.8197 96.3184 10.2441L 96.3184 10.0391ZM 97.4902 10.2441C 97.4902 11.5137 97.7474 12.5293 98.2617 13.291C 98.7826 14.0462 99.5573 14.4238 100.586 14.4238C 101.348 14.4238 101.979 14.2513 102.48 13.9062C 102.988 13.5612 103.379 13.0859 103.652 12.4805L 103.652 7.57812C 103.392 6.95964 103.018 6.45833 102.529 6.07422C 102.041 5.68359 101.4 5.48828 100.605 5.48828C 99.5768 5.48828 98.7988 5.91146 98.2715 6.75781C 97.7507 7.60417 97.4902 8.69792 97.4902 10.0391L 97.4902 10.2441Z"/>
<path id="path8_fill" d="M 107.266 14.375L 108.857 14.248L 108.857 5.66406L 107.266 5.53711L 107.266 4.66797L 109.893 4.66797L 110 6.51367C 110.339 5.86263 110.794 5.36133 111.367 5.00977C 111.947 4.65169 112.63 4.47266 113.418 4.47266C 114.564 4.47266 115.436 4.82422 116.035 5.52734C 116.634 6.22396 116.934 7.31445 116.934 8.79883L 116.934 14.248L 118.525 14.375L 118.525 15.2344L 114.17 15.2344L 114.17 14.375L 115.762 14.248L 115.762 8.80859C 115.762 7.59766 115.534 6.74154 115.078 6.24023C 114.629 5.73893 113.988 5.48828 113.154 5.48828C 112.334 5.48828 111.663 5.70638 111.143 6.14258C 110.628 6.57227 110.257 7.14518 110.029 7.86133L 110.029 14.248L 111.621 14.375L 111.621 15.2344L 107.266 15.2344L 107.266 14.375Z"/>
<path id="path9_fill" d="M 143.291 8.34961L 137.461 8.34961L 137.461 14.248L 144.18 14.248L 144.268 12.1191L 145.303 12.1191L 145.303 15.2344L 134.707 15.2344L 134.707 14.375L 136.299 14.248L 136.299 2.01172L 134.707 1.88477L 134.707 1.01562L 136.299 1.01562L 145.254 1.01562L 145.254 4.14062L 144.219 4.14062L 144.131 2.01172L 137.461 2.01172L 137.461 7.35352L 143.291 7.35352L 143.291 8.34961Z"/>
<path id="path10_fill" d="M 147.305 14.375L 148.896 14.248L 148.896 5.66406L 147.305 5.53711L 147.305 4.66797L 149.932 4.66797L 150.039 6.51367C 150.378 5.86263 150.833 5.36133 151.406 5.00977C 151.986 4.65169 152.669 4.47266 153.457 4.47266C 154.603 4.47266 155.475 4.82422 156.074 5.52734C 156.673 6.22396 156.973 7.31445 156.973 8.79883L 156.973 14.248L 158.564 14.375L 158.564 15.2344L 154.209 15.2344L 154.209 14.375L 155.801 14.248L 155.801 8.80859C 155.801 7.59766 155.573 6.74154 155.117 6.24023C 154.668 5.73893 154.027 5.48828 153.193 5.48828C 152.373 5.48828 151.702 5.70638 151.182 6.14258C 150.667 6.57227 150.296 7.14518 150.068 7.86133L 150.068 14.248L 151.66 14.375L 151.66 15.2344L 147.305 15.2344L 147.305 14.375Z"/>
<path id="path11_fill" d="M 163.096 1.96289L 163.096 4.66797L 165.42 4.66797L 165.42 5.625L 163.096 5.625L 163.096 12.5098C 163.096 13.1999 163.219 13.6914 163.467 13.9844C 163.721 14.2708 164.056 14.4141 164.473 14.4141C 164.661 14.4141 164.844 14.4076 165.02 14.3945C 165.202 14.375 165.41 14.3457 165.645 14.3066L 165.82 15.1758C 165.625 15.2604 165.387 15.3255 165.107 15.3711C 164.827 15.4167 164.548 15.4395 164.268 15.4395C 163.525 15.4395 162.946 15.2051 162.529 14.7363C 162.119 14.2676 161.914 13.5254 161.914 12.5098L 161.914 5.625L 160.098 5.625L 160.098 4.66797L 161.914 4.66797L 161.914 1.96289L 163.096 1.96289Z"/>
<path id="path12_fill" d="M 170.723 5.53711L 169.395 5.64453L 171.104 11.8066L 171.504 13.6914L 171.562 13.6914L 172.061 11.8066L 174.316 4.66797L 175.312 4.66797L 177.568 11.8066L 178.076 13.7402L 178.135 13.7402L 178.574 11.8066L 180.234 5.64453L 178.906 5.53711L 178.906 4.66797L 182.461 4.66797L 182.461 5.53711L 181.436 5.61523L 178.633 15.2344L 177.637 15.2344L 175.283 8.00781L 174.824 6.18164L 174.766 6.18164L 174.307 8.00781L 171.992 15.2344L 170.996 15.2344L 168.203 5.61523L 167.178 5.53711L 167.178 4.66797L 170.723 4.66797L 170.723 5.53711Z"/>
<path id="path13_fill" d="M 184.004 14.375L 185.596 14.248L 185.596 5.66406L 184.004 5.53711L 184.004 4.66797L 186.758 4.66797L 186.758 14.248L 188.35 14.375L 188.35 15.2344L 184.004 15.2344L 184.004 14.375ZM 186.758 1.64062L 185.596 1.64062L 185.596 0L 186.758 0L 186.758 1.64062Z"/>
<path id="path14_fill" d="M 194.824 14.4531C 195.599 14.4531 196.283 14.2318 196.875 13.7891C 197.467 13.3464 197.764 12.7311 197.764 11.9434L 198.799 11.9434L 198.818 12.002C 198.851 12.9785 198.46 13.7956 197.646 14.4531C 196.839 15.1107 195.898 15.4395 194.824 15.4395C 193.392 15.4395 192.282 14.9479 191.494 13.9648C 190.706 12.9753 190.312 11.7057 190.312 10.1562L 190.312 9.74609C 190.312 8.20964 190.706 6.94661 191.494 5.95703C 192.282 4.96745 193.389 4.47266 194.814 4.47266C 195.628 4.47266 196.374 4.62565 197.051 4.93164C 197.728 5.23763 198.278 5.6543 198.701 6.18164L 198.75 8.48633L 197.754 8.48633L 197.568 6.61133C 197.256 6.25977 196.865 5.98307 196.396 5.78125C 195.934 5.57292 195.407 5.46875 194.814 5.46875C 193.682 5.46875 192.842 5.87565 192.295 6.68945C 191.755 7.49674 191.484 8.51562 191.484 9.74609L 191.484 10.1562C 191.484 11.4062 191.755 12.4349 192.295 13.2422C 192.835 14.0495 193.678 14.4531 194.824 14.4531Z"/>
<path id="path15_fill" d="M 200.654 0.869141L 200.654 0L 203.408 0L 203.408 9.08203L 204.648 9.08203L 207.861 5.6543L 207.842 5.60547L 206.875 5.53711L 206.875 4.66797L 210.596 4.66797L 210.596 5.53711L 209.365 5.6543L 205.752 9.49219L 209.863 14.2676L 211.035 14.375L 211.035 15.2344L 207.324 15.2344L 207.324 14.375L 208.438 14.3066L 204.766 10.0879L 203.408 10.0879L 203.408 14.248L 205 14.375L 205 15.2344L 200.654 15.2344L 200.654 14.375L 202.246 14.248L 202.246 0.996094L 200.654 0.869141Z"/>
<path id="path16_fill" d="M 212.422 0.869141L 212.422 0L 215.176 0L 215.176 14.248L 216.768 14.375L 216.768 15.2344L 212.422 15.2344L 212.422 14.375L 214.014 14.248L 214.014 0.996094L 212.422 0.869141Z"/>
<path id="path17_fill" d="M 226.377 13.4961C 226.045 14.1146 225.589 14.5931 225.01 14.9316C 224.437 15.2702 223.76 15.4395 222.979 15.4395C 221.865 15.4395 220.993 15.0618 220.361 14.3066C 219.736 13.5514 219.424 12.3796 219.424 10.791L 219.424 5.66406L 218.115 5.53711L 218.115 4.66797L 219.424 4.66797L 220.586 4.66797L 220.586 10.8105C 220.586 12.0996 220.804 13.0241 221.24 13.584C 221.683 14.1439 222.308 14.4238 223.115 14.4238C 224.001 14.4238 224.704 14.2285 225.225 13.8379C 225.752 13.4473 226.123 12.9069 226.338 12.2168L 226.338 5.66406L 224.834 5.53711L 224.834 4.66797L 226.338 4.66797L 227.51 4.66797L 227.51 14.248L 228.926 14.375L 228.926 15.2344L 226.484 15.2344L 226.377 13.4961Z"/>
<path id="path18_fill" d="M 230.43 14.375L 232.021 14.248L 232.021 5.66406L 230.43 5.53711L 230.43 4.66797L 233.057 4.66797L 233.164 6.51367C 233.503 5.86263 233.958 5.36133 234.531 5.00977C 235.111 4.65169 235.794 4.47266 236.582 4.47266C 237.728 4.47266 238.6 4.82422 239.199 5.52734C 239.798 6.22396 240.098 7.31445 240.098 8.79883L 240.098 14.248L 241.689 14.375L 241.689 15.2344L 237.334 15.2344L 237.334 14.375L 238.926 14.248L 238.926 8.80859C 238.926 7.59766 238.698 6.74154 238.242 6.24023C 237.793 5.73893 237.152 5.48828 236.318 5.48828C 235.498 5.48828 234.827 5.70638 234.307 6.14258C 233.792 6.57227 233.421 7.14518 233.193 7.86133L 233.193 14.248L 234.785 14.375L 234.785 15.2344L 230.43 15.2344L 230.43 14.375Z"/>
<path id="path19_fill" d="M 243.486 10.0391C 243.486 8.35286 243.844 7.00521 244.561 5.99609C 245.283 4.98047 246.283 4.47266 247.559 4.47266C 248.307 4.47266 248.955 4.63867 249.502 4.9707C 250.055 5.29622 250.511 5.75846 250.869 6.35742L 251.006 4.66797L 251.992 4.66797L 251.992 15.0977C 251.992 16.4583 251.624 17.5326 250.889 18.3203C 250.153 19.1081 249.128 19.502 247.812 19.502C 247.305 19.502 246.761 19.4401 246.182 19.3164C 245.609 19.1927 245.107 19.0234 244.678 18.8086L 244.99 17.8223C 245.413 18.0241 245.856 18.1803 246.318 18.291C 246.787 18.4017 247.279 18.457 247.793 18.457C 248.796 18.457 249.551 18.1608 250.059 17.5684C 250.566 16.9759 250.82 16.1523 250.82 15.0977L 250.82 13.7598C 250.462 14.3001 250.01 14.7168 249.463 15.0098C 248.916 15.2962 248.275 15.4395 247.539 15.4395C 246.27 15.4395 245.277 14.9674 244.561 14.0234C 243.844 13.0794 243.486 11.8197 243.486 10.2441L 243.486 10.0391ZM 244.658 10.2441C 244.658 11.5137 244.915 12.5293 245.43 13.291C 245.951 14.0462 246.725 14.4238 247.754 14.4238C 248.516 14.4238 249.147 14.2513 249.648 13.9062C 250.156 13.5612 250.547 13.0859 250.82 12.4805L 250.82 7.57812C 250.56 6.95964 250.186 6.45833 249.697 6.07422C 249.209 5.68359 248.568 5.48828 247.773 5.48828C 246.745 5.48828 245.967 5.91146 245.439 6.75781C 244.919 7.60417 244.658 8.69792 244.658 10.0391L 244.658 10.2441Z"/>
<path id="path20_fill" d="M 3.91406 37.0547L 0 37.0547L 14.25 0L 18.1406 0L 3.91406 37.0547Z"/>
<path id="path21_fill" d="M 17.9766 37.0547L 14.0625 37.0547L 28.3125 0L 32.2031 0L 17.9766 37.0547Z"/>
<path id="path22_fill" d="M 0 14.1797L 0 11.2031L 7.94531 11.2031L 8.39062 14.8828C 9.10937 13.5859 9.99219 12.5703 11.0391 11.8359C 12.1016 11.1016 13.3125 10.7344 14.6719 10.7344C 15.0312 10.7344 15.3984 10.7656 15.7734 10.8281C 16.1641 10.875 16.4609 10.9297 16.6641 10.9922L 16.0547 15.2812L 13.4297 15.1406C 12.2109 15.1406 11.1875 15.4297 10.3594 16.0078C 9.53125 16.5703 8.89063 17.3672 8.4375 18.3984L 8.4375 32.9531L 12.2578 33.6094L 12.2578 36.5625L 0 36.5625L 0 33.6094L 3.82031 32.9531L 3.82031 14.8359L 0 14.1797Z"/>
<path id="path23_fill" d="M 19.4297 23.6484C 19.4297 19.8984 20.4453 16.8125 22.4766 14.3906C 24.5078 11.9531 27.2656 10.7344 30.75 10.7344C 34.25 10.7344 37.0156 11.9453 39.0469 14.3672C 41.0937 16.7891 42.1172 19.8828 42.1172 23.6484L 42.1172 24.1641C 42.1172 27.9453 41.1016 31.0391 39.0703 33.4453C 37.0391 35.8516 34.2813 37.0547 30.7969 37.0547C 27.2812 37.0547 24.5078 35.8516 22.4766 33.4453C 20.4453 31.0234 19.4297 27.9297 19.4297 24.1641L 19.4297 23.6484ZM 24.0469 24.1641C 24.0469 26.8516 24.6094 29.0703 25.7344 30.8203C 26.875 32.5703 28.5625 33.4453 30.7969 33.4453C 32.9844 33.4453 34.6484 32.5703 35.7891 30.8203C 36.9297 29.0703 37.5 26.8516 37.5 24.1641L 37.5 23.6484C 37.5 20.9922 36.9297 18.7812 35.7891 17.0156C 34.6484 15.25 32.9688 14.3672 30.75 14.3672C 28.5313 14.3672 26.8594 15.25 25.7344 17.0156C 24.6094 18.7812 24.0469 20.9922 24.0469 23.6484L 24.0469 24.1641Z"/>
<path id="path24_fill" d="M 65.7656 19.1719L 62.2969 19.1719L 61.5469 16.125C 60.9844 15.5937 60.2734 15.1719 59.4141 14.8594C 58.5703 14.5312 57.6094 14.3672 56.5312 14.3672C 54.8906 14.3672 53.6719 14.7266 52.875 15.4453C 52.0781 16.1641 51.6797 17.0313 51.6797 18.0469C 51.6797 19.0469 52.0312 19.8359 52.7344 20.4141C 53.4375 20.9922 54.8672 21.5078 57.0234 21.9609C 60.2266 22.6484 62.6094 23.5859 64.1719 24.7734C 65.7344 25.9453 66.5156 27.5234 66.5156 29.5078C 66.5156 31.7578 65.6016 33.5781 63.7734 34.9688C 61.9609 36.3594 59.5859 37.0547 56.6484 37.0547C 54.7266 37.0547 53 36.8359 51.4688 36.3984C 49.9375 35.9453 48.5703 35.2969 47.3672 34.4531L 47.3438 28.6641L 50.8125 28.6641L 51.6797 32.0625C 52.2109 32.5469 52.9297 32.8984 53.8359 33.1172C 54.7578 33.3359 55.6953 33.4453 56.6484 33.4453C 58.2891 33.4453 59.5703 33.1172 60.4922 32.4609C 61.4297 31.7891 61.8984 30.9141 61.8984 29.8359C 61.8984 28.8203 61.5078 27.9844 60.7266 27.3281C 59.9609 26.6719 58.5 26.1016 56.3438 25.6172C 53.2656 24.9453 50.9453 24.0312 49.3828 22.875C 47.8203 21.7188 47.0391 20.1562 47.0391 18.1875C 47.0391 16.125 47.9141 14.3672 49.6641 12.9141C 51.4297 11.4609 53.7188 10.7344 56.5312 10.7344C 58.4531 10.7344 60.1797 10.9844 61.7109 11.4844C 63.2422 11.9844 64.5156 12.6797 65.5312 13.5703L 65.7656 19.1719Z"/>
<path id="path25_fill" d="M 78.8906 5.08594L 78.8906 11.2031L 83.6953 11.2031L 83.6953 14.625L 78.8906 14.625L 78.8906 30.0234C 78.8906 31.2109 79.1328 32.0469 79.6172 32.5312C 80.1172 33.0156 80.7734 33.2578 81.5859 33.2578C 81.9922 33.2578 82.4453 33.2266 82.9453 33.1641C 83.4609 33.0859 83.8906 33.0078 84.2344 32.9297L 84.8672 36.0938C 84.4297 36.375 83.7891 36.6016 82.9453 36.7734C 82.1016 36.9609 81.2578 37.0547 80.4141 37.0547C 78.5391 37.0547 77.0469 36.4922 75.9375 35.3672C 74.8281 34.2266 74.2734 32.4453 74.2734 30.0234L 74.2734 14.625L 70.2656 14.625L 70.2656 11.2031L 74.2734 11.2031L 74.2734 5.08594L 78.8906 5.08594Z"/>
<path id="path26_fill" d="M 87.9609 23.6484C 87.9609 19.8984 88.9766 16.8125 91.0078 14.3906C 93.0391 11.9531 95.7969 10.7344 99.2812 10.7344C 102.781 10.7344 105.547 11.9453 107.578 14.3672C 109.625 16.7891 110.648 19.8828 110.648 23.6484L 110.648 24.1641C 110.648 27.9453 109.633 31.0391 107.602 33.4453C 105.57 35.8516 102.813 37.0547 99.3281 37.0547C 95.8125 37.0547 93.0391 35.8516 91.0078 33.4453C 88.9766 31.0234 87.9609 27.9297 87.9609 24.1641L 87.9609 23.6484ZM 92.5781 24.1641C 92.5781 26.8516 93.1406 29.0703 94.2656 30.8203C 95.4062 32.5703 97.0937 33.4453 99.3281 33.4453C 101.516 33.4453 103.18 32.5703 104.32 30.8203C 105.461 29.0703 106.031 26.8516 106.031 24.1641L 106.031 23.6484C 106.031 20.9922 105.461 18.7812 104.32 17.0156C 103.18 15.25 101.5 14.3672 99.2812 14.3672C 97.0625 14.3672 95.3906 15.25 94.2656 17.0156C 93.1406 18.7812 92.5781 20.9922 92.5781 23.6484L 92.5781 24.1641Z"/>
<path id="path27_fill" d="M 126.281 33.4453C 127.812 33.4453 129.156 32.9766 130.312 32.0391C 131.484 31.0859 132.07 29.9219 132.07 28.5469L 136.219 28.5469L 136.266 28.6875C 136.344 30.875 135.367 32.8203 133.336 34.5234C 131.32 36.2109 128.969 37.0547 126.281 37.0547C 122.594 37.0547 119.773 35.8516 117.82 33.4453C 115.883 31.0391 114.914 28.0156 114.914 24.375L 114.914 23.3906C 114.914 19.7812 115.891 16.7734 117.844 14.3672C 119.797 11.9453 122.609 10.7344 126.281 10.7344C 128.313 10.7344 130.133 11.0703 131.742 11.7422C 133.367 12.4141 134.711 13.3359 135.773 14.5078L 135.984 20.1328L 132.305 20.1328L 131.297 16.1484C 130.75 15.6172 130.047 15.1875 129.188 14.8594C 128.328 14.5312 127.359 14.3672 126.281 14.3672C 123.859 14.3672 122.125 15.2422 121.078 16.9922C 120.047 18.7266 119.531 20.8594 119.531 23.3906L 119.531 24.375C 119.531 26.9687 120.047 29.1328 121.078 30.8672C 122.109 32.5859 123.844 33.4453 126.281 33.4453Z"/>
<path id="path28_fill" d="M 140.133 2.97656L 140.133 0L 148.57 0L 148.57 21.1875L 151.523 21.1875L 156.938 14.4844L 154.617 14.1797L 154.617 11.2031L 165.234 11.2031L 165.234 14.1797L 162.141 14.7891L 155.461 22.7578L 163.594 33.0469L 166.477 33.6094L 166.477 36.5625L 155.953 36.5625L 155.953 33.6094L 158.32 33.3047L 151.594 24.8672L 148.57 24.8672L 148.57 32.9531L 152.391 33.6094L 152.391 36.5625L 140.133 36.5625L 140.133 33.6094L 143.953 32.9531L 143.953 3.63281L 140.133 2.97656Z"/>
<path id="path29_fill" d="M 16.1953 36.5625C 16.0547 35.875 15.9453 35.2578 15.8672 34.7109C 15.7891 34.1641 15.7344 33.6172 15.7031 33.0703C 14.8125 34.2109 13.6953 35.1641 12.3516 35.9297C 11.0234 36.6797 9.60156 37.0547 8.08594 37.0547C 5.44531 37.0547 3.4375 36.4141 2.0625 35.1328C 0.6875 33.8359 0 32.0156 0 29.6719C 0 27.2656 0.96875 25.4141 2.90625 24.1172C 4.85938 22.8047 7.53125 22.1484 10.9219 22.1484L 15.6797 22.1484L 15.6797 19.1953C 15.6797 17.7109 15.2109 16.5391 14.2734 15.6797C 13.3359 14.8047 12.0312 14.3672 10.3594 14.3672C 9.20312 14.3672 8.17969 14.5156 7.28906 14.8125C 6.41406 15.1094 5.70313 15.5156 5.15625 16.0312L 4.66406 18.7031L 1.10156 18.7031L 1.10156 13.7812C 2.25781 12.8594 3.65625 12.125 5.29688 11.5781C 6.9375 11.0156 8.71875 10.7344 10.6406 10.7344C 13.5156 10.7344 15.8438 11.4688 17.625 12.9375C 19.4062 14.4063 20.2969 16.5078 20.2969 19.2422L 20.2969 31.4531C 20.2969 31.7812 20.2969 32.1016 20.2969 32.4141C 20.3125 32.7266 20.3359 33.0391 20.3672 33.3516L 22.2422 33.6094L 22.2422 36.5625L 16.1953 36.5625ZM 8.76562 33.1875C 10.2969 33.1875 11.6953 32.8203 12.9609 32.0859C 14.2266 31.3516 15.1328 30.4688 15.6797 29.4375L 15.6797 25.2656L 10.7578 25.2656C 8.86719 25.2656 7.36719 25.7031 6.25781 26.5781C 5.16406 27.4531 4.61719 28.5156 4.61719 29.7656C 4.61719 30.875 4.96094 31.7266 5.64844 32.3203C 6.33594 32.8984 7.375 33.1875 8.76562 33.1875Z"/>
<path id="path30_fill" d="M 25.4531 33.6094L 29.2734 32.9531L 29.2734 3.63281L 25.4531 2.97656L 25.4531 0L 33.8906 0L 33.8906 14.5781C 34.7656 13.3594 35.8359 12.4141 37.1016 11.7422C 38.3672 11.0703 39.7734 10.7344 41.3203 10.7344C 44.0391 10.7344 46.1484 11.5469 47.6484 13.1719C 49.1484 14.7969 49.8984 17.2969 49.8984 20.6719L 49.8984 32.9531L 53.7188 33.6094L 53.7188 36.5625L 41.4609 36.5625L 41.4609 33.6094L 45.2812 32.9531L 45.2812 20.625C 45.2812 18.5313 44.8281 16.9844 43.9219 15.9844C 43.0312 14.9844 41.6953 14.4844 39.9141 14.4844C 38.6484 14.4844 37.4922 14.7891 36.4453 15.3984C 35.4141 15.9922 34.5625 16.8047 33.8906 17.8359L 33.8906 32.9531L 37.7109 33.6094L 37.7109 36.5625L 25.4531 36.5625L 25.4531 33.6094Z"/>
<path id="path31_fill" d="M 56.8594 23.6484C 56.8594 19.8984 57.875 16.8125 59.9062 14.3906C 61.9375 11.9531 64.6953 10.7344 68.1797 10.7344C 71.6797 10.7344 74.4453 11.9453 76.4766 14.3672C 78.5234 16.7891 79.5469 19.8828 79.5469 23.6484L 79.5469 24.1641C 79.5469 27.9453 78.5313 31.0391 76.5 33.4453C 74.4687 35.8516 71.7109 37.0547 68.2266 37.0547C 64.7109 37.0547 61.9375 35.8516 59.9062 33.4453C 57.875 31.0234 56.8594 27.9297 56.8594 24.1641L 56.8594 23.6484ZM 61.4766 24.1641C 61.4766 26.8516 62.0391 29.0703 63.1641 30.8203C 64.3047 32.5703 65.9922 33.4453 68.2266 33.4453C 70.4141 33.4453 72.0781 32.5703 73.2188 30.8203C 74.3594 29.0703 74.9297 26.8516 74.9297 24.1641L 74.9297 23.6484C 74.9297 20.9922 74.3594 18.7812 73.2188 17.0156C 72.0781 15.25 70.3984 14.3672 68.1797 14.3672C 65.9609 14.3672 64.2891 15.25 63.1641 17.0156C 62.0391 18.7812 61.4766 20.9922 61.4766 23.6484L 61.4766 24.1641Z"/>
<path id="path32_fill" d="M 83.7891 33.6094L 87.6094 32.9531L 87.6094 14.8359L 83.7891 14.1797L 83.7891 11.2031L 92.2266 11.2031L 92.2266 32.9531L 96.0469 33.6094L 96.0469 36.5625L 83.7891 36.5625L 83.7891 33.6094ZM 92.2266 4.71094L 87.6094 4.71094L 87.6094 0L 92.2266 0L 92.2266 4.71094Z"/>
</defs>
</svg>
