<svg width="135" height="87" viewBox="0 0 135 87" version="1.1" xmlns="http://www.w3.org/2000/svg" xmlns:xlink="http://www.w3.org/1999/xlink">
<title>Group</title>
<desc>Created using Figma</desc>
<g id="Canvas" transform="translate(-9701 -1127)">
<g id="Group" filter="url(#filter0_d)">
<g id="Vector 5">
<use xlink:href="#path0_fill" transform="matrix(1 2.77556e-17 -2.77556e-17 1 9709.9 1139.95)" fill="#FAFAFA"/>
<use xlink:href="#path1_fill" transform="matrix(1 2.77556e-17 -2.77556e-17 1 9709.9 1139.95)" fill="#FAFAFA"/>
<use xlink:href="#path2_fill" transform="matrix(1 2.77556e-17 -2.77556e-17 1 9709.9 1139.95)" fill="#FAFAFA"/>
</g>
<g id="Vector 6">
<use xlink:href="#path3_fill" transform="matrix(1 2.77556e-17 -2.77556e-17 1 9712.98 1160.76)" fill="#D9D9D9"/>
<use xlink:href="#path4_fill" transform="matrix(1 2.77556e-17 -2.77556e-17 1 9712.98 1160.76)" fill="#D9D9D9"/>
</g>
</g>
</g>
<defs>
<filter id="filter0_d" filterUnits="userSpaceOnUse" x="9701" y="1127" width="135" height="87" color-interpolation-filters="sRGB">
<feFlood flood-opacity="0" result="BackgroundImageFix"/>
<feColorMatrix in="SourceAlpha" type="matrix" values="0 0 0 0 0 0 0 0 0 0 0 0 0 0 0 0 0 0 255 0"/>
<feOffset dx="0" dy="-4"/>
<feGaussianBlur stdDeviation="4"/>
<feColorMatrix type="matrix" values="0 0 0 0 0 0 0 0 0 0 0 0 0 0 0 0 0 0 0.2 0"/>
<feBlend mode="normal" in2="BackgroundImageFix" result="effect1_dropShadow"/>
<feBlend mode="normal" in="SourceGraphic" in2="effect1_dropShadow" result="shape"/>
</filter>
<path id="path0_fill" d="M 25.2639 68.2859L 0 21.9265L 96.4582 69.3313L 25.2639 68.2859Z"/>
<path id="path1_fill" d="M 58.2877 0L 30.7187 34.8734L 58.3145 48.4099L 85.5618 34.9002L 58.2877 0Z"/>
<path id="path2_fill" d="M 117.822 21.6317L 60.5661 49.5223L 100.372 69.0096L 117.822 21.6317Z"/>
<path id="path3_fill" d="M 25.7998 12.8932L 0 0.160822L 33.131 3.64548L 25.7998 12.8932Z"/>
<path id="path4_fill" d="M 84.3152 12.9066L 76.0325 2.69392L 111.254 0L 84.3152 12.9066Z"/>
</defs>
</svg>
