<svg width="196" height="196" viewBox="0 0 196 196" version="1.1" xmlns="http://www.w3.org/2000/svg" xmlns:xlink="http://www.w3.org/1999/xlink">
<title>Group</title>
<desc>Created using Figma</desc>
<g id="Canvas" transform="translate(-9570 -1872)">
<g id="Group">
<g id="BG">
<use xlink:href="#path0_fill" transform="translate(9570 1872)" fill="#1A1A1A"/>
</g>
<g id="Group">
<g id="Group" filter="url(#filter0_d)">
<g id="Vector 5">
<use xlink:href="#path1_fill" transform="matrix(0.934633 -0.355615 0.355615 0.934633 9599.33 1958.92)" fill="#FAFAFA"/>
<use xlink:href="#path2_fill" transform="matrix(0.934633 -0.355615 0.355615 0.934633 9599.33 1958.92)" fill="#FAFAFA"/>
<use xlink:href="#path3_fill" transform="matrix(0.934633 -0.355615 0.355615 0.934633 9599.33 1958.92)" fill="#FAFAFA"/>
</g>
<g id="Vector 6">
<use xlink:href="#path4_fill" transform="matrix(0.934633 -0.355615 0.355615 0.934633 9609.62 1977.28)" fill="#D9D9D9"/>
<use xlink:href="#path5_fill" transform="matrix(0.934633 -0.355615 0.355615 0.934633 9609.62 1977.28)" fill="#D9D9D9"/>
</g>
</g>
<g id="Group">
<g id="Vector 9">
<use xlink:href="#path6_fill" transform="matrix(0.977415 -0.21133 0.21133 0.977415 9662.87 1915.88)" fill="#FAFAFA"/>
</g>
<g id="Vector 10">
<use xlink:href="#path7_fill" transform="matrix(0.977415 -0.21133 0.21133 0.977415 9667.38 1915.42)" fill="url(#paint7_linear)"/>
</g>
</g>
</g>
<g id="Intersect">
<use xlink:href="#path8_fill" transform="translate(9576.65 1981.02)" fill="#333333"/>
</g>
</g>
</g>
<defs>
<filter id="filter0_d" filterUnits="userSpaceOnUse" x="9591" y="1905" width="152" height="123" color-interpolation-filters="sRGB">
<feFlood flood-opacity="0" result="BackgroundImageFix"/>
<feColorMatrix in="SourceAlpha" type="matrix" values="0 0 0 0 0 0 0 0 0 0 0 0 0 0 0 0 0 0 255 0"/>
<feOffset dx="0" dy="-4"/>
<feGaussianBlur stdDeviation="4"/>
<feColorMatrix type="matrix" values="0 0 0 0 0 0 0 0 0 0 0 0 0 0 0 0 0 0 0.2 0"/>
<feBlend mode="normal" in2="BackgroundImageFix" result="effect1_dropShadow"/>
<feBlend mode="normal" in="SourceGraphic" in2="effect1_dropShadow" result="shape"/>
</filter>
<linearGradient id="paint7_linear" x1="0" y1="0" x2="1" y2="0" gradientUnits="userSpaceOnUse" gradientTransform="matrix(2.02067e-15 22 -33 1.34711e-15 33 -1.34711e-15)">
<stop offset="0" stop-color="#FF8B40"/>
<stop offset="1" stop-color="#E6747F"/>
</linearGradient>
<path id="path0_fill" d="M 196 98C 196 152.124 152.124 196 98 196C 43.8761 196 0 152.124 0 98C 0 43.8761 43.8761 0 98 0C 152.124 0 196 43.8761 196 98Z"/>
<path id="path1_fill" d="M 25.2639 68.2859L 0 21.9265L 96.4582 69.3313L 25.2639 68.2859Z"/>
<path id="path2_fill" d="M 58.2877 0L 30.7187 34.8734L 58.3145 48.4099L 85.5618 34.9002L 58.2877 0Z"/>
<path id="path3_fill" d="M 117.822 21.6317L 60.5661 49.5223L 100.372 69.0096L 117.822 21.6317Z"/>
<path id="path4_fill" d="M 25.7998 12.8932L 0 0.160822L 33.131 3.64548L 25.7998 12.8932Z"/>
<path id="path5_fill" d="M 84.3152 12.9066L 76.0325 2.69392L 111.254 0L 84.3152 12.9066Z"/>
<path id="path6_fill" d="M 2.5 33L 0 30L 0 0L 2.5 0L 2.5 33Z"/>
<path id="path7_fill" d="M 33 3L 0 22L 0 0L 33 3Z"/>
<path id="path8_fill" d="M 188.733 0C 183.257 48.9359 141.744 86.9792 91.3457 86.9792C 49.7686 86.9792 14.2383 61.0873 0 24.5477C 33.6582 21.6237 60.6328 17.0586 87.0371 12.5902C 118.344 7.29224 148.847 2.13013 188.733 0Z"/>
</defs>
</svg>
