<?xml version="1.0" encoding="UTF-8" standalone="no"?>
<svg
   xmlns:dc="http://purl.org/dc/elements/1.1/"
   xmlns:cc="http://creativecommons.org/ns#"
   xmlns:rdf="http://www.w3.org/1999/02/22-rdf-syntax-ns#"
   xmlns:svg="http://www.w3.org/2000/svg"
   xmlns="http://www.w3.org/2000/svg"
   xmlns:xlink="http://www.w3.org/1999/xlink"
   xmlns:sodipodi="http://sodipodi.sourceforge.net/DTD/sodipodi-0.dtd"
   xmlns:inkscape="http://www.inkscape.org/namespaces/inkscape"
   width="88"
   height="77"
   viewBox="0 0 88 77"
   version="1.1"
   id="svg2"
   inkscape:version="0.48.4 r9939"
   sodipodi:docname="triangle.svg">
  <metadata
     id="metadata17">
    <rdf:RDF>
      <cc:Work
         rdf:about="">
        <dc:format>image/svg+xml</dc:format>
        <dc:type
           rdf:resource="http://purl.org/dc/dcmitype/StillImage" />
      </cc:Work>
    </rdf:RDF>
  </metadata>
  <sodipodi:namedview
     pagecolor="#ffffff"
     bordercolor="#666666"
     borderopacity="1"
     objecttolerance="10"
     gridtolerance="10"
     guidetolerance="10"
     inkscape:pageopacity="0"
     inkscape:pageshadow="2"
     inkscape:window-width="640"
     inkscape:window-height="480"
     id="namedview15"
     showgrid="false"
     inkscape:zoom="3.8910308"
     inkscape:cx="44"
     inkscape:cy="38.5"
     inkscape:window-x="0"
     inkscape:window-y="0"
     inkscape:window-maximized="0"
     inkscape:current-layer="svg2" />
  <title
     id="title4">Polygon</title>
  <desc
     id="desc6">Created using Figma</desc>
  <g
     id="Canvas"
     transform="matrix(1,0,0,-1,587,-248.25)">
    <g
       id="Polygon">
      <use
         xlink:href="#path0_stroke"
         transform="translate(-593,-324)"
         id="use10"
         style="fill:#1f1f1f"
         x="0"
         y="0"
         width="88"
         height="77" />
    </g>
  </g>
  <defs
     id="defs12">
    <path
       id="path0_stroke"
       d="M 50 0L 50.2165 -0.125L 50 -0.5L 49.7835 -0.125L 50 0ZM 93.3013 75L 93.3013 75.25L 93.7343 75.25L 93.5178 74.875L 93.3013 75ZM 6.69873 75L 6.48222 74.875L 6.26572 75.25L 6.69873 75.25L 6.69873 75ZM 49.7835 0.125L 93.0848 75.125L 93.5178 74.875L 50.2165 -0.125L 49.7835 0.125ZM 93.3013 74.75L 6.69873 74.75L 6.69873 75.25L 93.3013 75.25L 93.3013 74.75ZM 6.91524 75.125L 50.2165 0.125L 49.7835 -0.125L 6.48222 74.875L 6.91524 75.125Z" />
  </defs>
</svg>
