<svg width="1800" height="234" viewBox="0 0 1800 234" version="1.1" xmlns="http://www.w3.org/2000/svg" xmlns:xlink="http://www.w3.org/1999/xlink">
<title>Vector 7</title>
<desc>Created using Figma</desc>
<g id="Canvas" transform="translate(-8995 -1182)">
<g id="Vector 7" filter="url(#filter0_d)">
<use xlink:href="#path0_fill" transform="translate(8661 1194.52)" fill="#242424"/>
</g>
</g>
<defs>
<filter id="filter0_d" filterUnits="userSpaceOnUse" x="8995" y="1182" width="1800" height="234" color-interpolation-filters="sRGB">
<feFlood flood-opacity="0" result="BackgroundImageFix"/>
<feColorMatrix in="SourceAlpha" type="matrix" values="0 0 0 0 0 0 0 0 0 0 0 0 0 0 0 0 0 0 255 0"/>
<feOffset dx="0" dy="-4"/>
<feGaussianBlur stdDeviation="4"/>
<feColorMatrix type="matrix" values="0 0 0 0 0 0 0 0 0 0 0 0 0 0 0 0 0 0 0.2 0"/>
<feBlend mode="normal" in2="BackgroundImageFix" result="effect1_dropShadow"/>
<feBlend mode="normal" in="SourceGraphic" in2="effect1_dropShadow" result="shape"/>
</filter>
<path id="path0_fill" d="M 1239.99 0C 1113.88 0 1079.38 28.7138 934.5 28.7138C 812.5 28.7138 720.3 0 645.5 0C 560.5 0 482.3 34.9797 427.5 34.9797C 359 34.9797 276 0 187 0C 98 0 62 34.9797 0 34.9797L 0 221.359L 2695 221.359L 2695 28.7138C 2602.24 28.7138 2543.87 0 2409.42 0C 2274.97 0 2211.39 28.7138 2087.36 28.7138C 1963.33 28.7138 1942.48 0 1825.75 0C 1709.01 0 1632.93 28.7138 1519.32 28.7138C 1405.71 28.7138 1366.11 0 1239.99 0Z"/>
</defs>
</svg>
