<svg width="512" height="512" viewBox="0 0 512 512" version="1.1" xmlns="http://www.w3.org/2000/svg" xmlns:xlink="http://www.w3.org/1999/xlink">
<title>Group</title>
<desc>Created using Figma</desc>
<g id="Canvas" transform="matrix(7.31429 0 0 7.31429 -7007.09 -716.8)">
<g id="Group">
<g id="Rectangle 8">
<use xlink:href="#path0_fill" transform="translate(958.292 98.8216)" fill="#FFFFFF"/>
</g>
<g id="Group">
<g id="//">
<use xlink:href="#path1_fill" transform="translate(969.794 105.34)" fill="url(#paint1_linear)"/>
</g>
<g id="r">
<use xlink:href="#path2_fill" transform="translate(964.294 105.339)" fill="#535F6B"/>
</g>
<g id="a">
<use xlink:href="#path3_fill" transform="translate(1001.29 105.34)" fill="#535F6B"/>
</g>
</g>
</g>
</g>
<defs>
<linearGradient id="paint1_linear" x1="0" y1="0" x2="1" y2="0" gradientUnits="userSpaceOnUse" gradientTransform="matrix(2.0819e-15 55.9684 -34 3.42708e-15 34 -3.42708e-15)">
<stop offset="0" stop-color="#FFAF7B"/>
<stop offset="1" stop-color="#FF6B6B"/>
</linearGradient>
<path id="path0_fill" d="M 0 0L 69.0042 0L 69.0042 69.0042L 0 69.0042L 0 0Z"/>
<path id="path1_fill" d="M 11.9004 40.1973L 8.96484 40.1973L 19.6523 12.4062L 22.5703 12.4062L 11.9004 40.1973ZM 22.4473 40.1973L 19.5117 40.1973L 30.1992 12.4062L 33.1172 12.4062L 22.4473 40.1973Z"/>
<path id="path2_fill" d="M 1.56445 21.2129L 1.56445 18.9805L 7.52344 18.9805L 7.85742 21.7402C 8.39648 20.7676 9.05859 20.0059 9.84375 19.4551C 10.6406 18.9043 11.5488 18.6289 12.5684 18.6289C 12.8379 18.6289 13.1133 18.6523 13.3945 18.6992C 13.6875 18.7344 13.9102 18.7754 14.0625 18.8223L 13.6055 22.0391L 11.6367 21.9336C 10.7227 21.9336 9.95508 22.1504 9.33398 22.584C 8.71289 23.0059 8.23242 23.6035 7.89258 24.377L 7.89258 35.293L 10.7578 35.7852L 10.7578 38L 1.56445 38L 1.56445 35.7852L 4.42969 35.293L 4.42969 21.7051L 1.56445 21.2129Z"/>
<path id="path3_fill" d="M 13.9746 38C 13.8691 37.4844 13.7871 37.0215 13.7285 36.6113C 13.6699 36.2012 13.6289 35.791 13.6055 35.3809C 12.9375 36.2363 12.0996 36.9512 11.0918 37.5254C 10.0957 38.0879 9.0293 38.3691 7.89258 38.3691C 5.91211 38.3691 4.40625 37.8887 3.375 36.9277C 2.34375 35.9551 1.82812 34.5898 1.82812 32.832C 1.82812 31.0273 2.55469 29.6387 4.00781 28.666C 5.47266 27.6816 7.47656 27.1895 10.0195 27.1895L 13.5879 27.1895L 13.5879 24.9746C 13.5879 23.8613 13.2363 22.9824 12.5332 22.3379C 11.8301 21.6816 10.8516 21.3535 9.59766 21.3535C 8.73047 21.3535 7.96289 21.4648 7.29492 21.6875C 6.63867 21.9102 6.10547 22.2148 5.69531 22.6016L 5.32617 24.6055L 2.6543 24.6055L 2.6543 20.9141C 3.52148 20.2227 4.57031 19.6719 5.80078 19.2617C 7.03125 18.8398 8.36719 18.6289 9.80859 18.6289C 11.9648 18.6289 13.7109 19.1797 15.0469 20.2812C 16.3828 21.3828 17.0508 22.959 17.0508 25.0098L 17.0508 34.168C 17.0508 34.4141 17.0508 34.6543 17.0508 34.8887C 17.0625 35.123 17.0801 35.3574 17.1035 35.5918L 18.5098 35.7852L 18.5098 38L 13.9746 38ZM 8.40234 35.4688C 9.55078 35.4688 10.5996 35.1934 11.5488 34.6426C 12.498 34.0918 13.1777 33.4297 13.5879 32.6562L 13.5879 29.5273L 9.89648 29.5273C 8.47852 29.5273 7.35352 29.8555 6.52148 30.5117C 5.70117 31.168 5.29102 31.9648 5.29102 32.9023C 5.29102 33.7344 5.54883 34.373 6.06445 34.8184C 6.58008 35.252 7.35938 35.4688 8.40234 35.4688Z"/>
</defs>
</svg>
